<svg width="132" height="48" viewBox="0 0 132 48" fill="none" xmlns="http://www.w3.org/2000/svg">
<g id="badge_android.svg" clip-path="url(#clip0_415_4313)">
<path id="Vector" d="M117.333 0.166748H14.6667C6.56649 0.166748 0 6.73324 0 14.8334V33.1667C0 41.2669 6.56649 47.8334 14.6667 47.8334H117.333C125.434 47.8334 132 41.2669 132 33.1667V14.8334C132 6.73324 125.434 0.166748 117.333 0.166748Z" fill="black"/>
<path id="Vector_2" d="M98.583 32.2494H100.125V21.9356H98.583V32.2494ZM112.47 25.6511L110.702 30.1225H110.649L108.815 25.6511H107.155L109.906 31.9005L108.336 35.377H109.944L114.184 25.6511H112.47ZM103.726 31.078C103.221 31.078 102.516 30.8257 102.516 30.2021C102.516 29.4061 103.395 29.101 104.151 29.101C104.828 29.101 105.148 29.2466 105.56 29.4458C105.44 30.4012 104.617 31.078 103.726 31.078ZM103.913 25.4255C102.796 25.4255 101.64 25.9165 101.162 27.0046L102.53 27.575C102.823 27.0046 103.367 26.819 103.939 26.819C104.736 26.819 105.547 27.2962 105.56 28.1457V28.2518C105.28 28.0925 104.683 27.8537 103.952 27.8537C102.476 27.8537 100.976 28.6629 100.976 30.1757C100.976 31.5556 102.185 32.4448 103.539 32.4448C104.576 32.4448 105.148 31.9803 105.506 31.4361H105.56V32.2327H107.048V28.2782C107.048 26.447 105.679 25.4255 103.913 25.4255ZM94.3847 26.9065H92.192V23.3713H94.3847C95.537 23.3713 96.1915 24.324 96.1915 25.1389C96.1915 25.9382 95.537 26.9065 94.3847 26.9065ZM94.3444 21.9356H90.6505V32.2494H92.192V28.342H94.3444C96.053 28.342 97.7333 27.107 97.7333 25.1389C97.7333 23.1712 96.053 21.9356 94.3444 21.9356ZM74.2003 31.0799C73.1352 31.0799 72.2438 30.1891 72.2438 28.9668C72.2438 27.7304 73.1352 26.827 74.2003 26.827C75.2518 26.827 76.077 27.7304 76.077 28.9668C76.077 30.1891 75.2518 31.0799 74.2003 31.0799ZM75.9705 26.2286H75.9173C75.5713 25.8166 74.9055 25.4446 74.0673 25.4446C72.31 25.4446 70.6995 26.9865 70.6995 28.9668C70.6995 30.9336 72.31 32.4621 74.0673 32.4621C74.9055 32.4621 75.5713 32.0899 75.9173 31.6649H75.9705V32.1695C75.9705 33.5124 75.2518 34.2298 74.0937 34.2298C73.149 34.2298 72.5634 33.552 72.3235 32.9807L70.9794 33.5388C71.365 34.4689 72.3897 35.6123 74.0937 35.6123C75.9043 35.6123 77.4351 34.5488 77.4351 31.9568V25.6572H75.9705V26.2286ZM78.5002 32.2494H80.0436V21.9356H78.5002V32.2494ZM82.3199 28.8469C82.2801 27.4912 83.372 26.8002 84.1569 26.8002C84.7695 26.8002 85.2881 27.1061 85.4618 27.5444L82.3199 28.8469ZM87.1116 27.6771C86.8189 26.8933 85.9272 25.4446 84.1037 25.4446C82.2931 25.4446 80.7891 26.8667 80.7891 28.9533C80.7891 30.9204 82.2801 32.4621 84.2763 32.4621C85.8868 32.4621 86.8189 31.4789 87.2052 30.9072L86.0071 30.1096C85.6077 30.6945 85.0622 31.0799 84.2763 31.0799C83.4914 31.0799 82.9322 30.721 82.5732 30.0165L87.2714 28.0761L87.1116 27.6771ZM49.6773 26.5212V28.0097H53.2445C53.138 28.8469 52.8585 29.4583 52.4326 29.8837C51.9133 30.4019 51.1013 30.9736 49.6773 30.9736C47.481 30.9736 45.764 29.2059 45.764 27.0129C45.764 24.8199 47.481 23.0521 49.6773 23.0521C50.862 23.0521 51.727 23.5174 52.366 24.1155L53.4179 23.0653C52.5259 22.2147 51.3413 21.5635 49.6773 21.5635C46.6686 21.5635 44.1396 24.0091 44.1396 27.0129C44.1396 30.0165 46.6686 32.4621 49.6773 32.4621C51.301 32.4621 52.5259 31.9304 53.4841 30.9336C54.4691 29.9501 54.7754 28.5679 54.7754 27.4512C54.7754 27.1061 54.7485 26.787 54.6953 26.5212H49.6773ZM58.831 31.0799C57.7659 31.0799 56.8474 30.2027 56.8474 28.9533C56.8474 27.6907 57.7659 26.827 58.831 26.827C59.8957 26.827 60.8142 27.6907 60.8142 28.9533C60.8142 30.2027 59.8957 31.0799 58.831 31.0799ZM58.831 25.4446C56.887 25.4446 55.3034 26.9197 55.3034 28.9533C55.3034 30.9736 56.887 32.4621 58.831 32.4621C60.7741 32.4621 62.3582 30.9736 62.3582 28.9533C62.3582 26.9197 60.7741 25.4446 58.831 25.4446ZM66.5254 31.0799C65.461 31.0799 64.5423 30.2027 64.5423 28.9533C64.5423 27.6907 65.461 26.827 66.5254 26.827C67.5905 26.827 68.5087 27.6907 68.5087 28.9533C68.5087 30.2027 67.5905 31.0799 66.5254 31.0799ZM66.5254 25.4446C64.5822 25.4446 62.9985 26.9197 62.9985 28.9533C62.9985 30.9736 64.5822 32.4621 66.5254 32.4621C68.4694 32.4621 70.0531 30.9736 70.0531 28.9533C70.0531 26.9197 68.4694 25.4446 66.5254 25.4446Z" fill="white"/>
<path id="Vector_3" d="M46.9774 18.4177C46.2366 18.4177 45.5995 18.1573 45.0858 17.6445C44.5719 17.1313 44.3115 16.4887 44.3115 15.7415C44.3115 14.9944 44.5719 14.3529 45.0858 13.8385C45.5995 13.3256 46.2367 13.0654 46.9774 13.0654C47.3548 13.0654 47.7069 13.1305 48.0435 13.266C48.3803 13.4016 48.6558 13.5898 48.8727 13.836L48.9238 13.8941L48.346 14.471L48.2882 14.4001C48.1444 14.2235 47.9614 14.0865 47.7296 13.9868C47.4986 13.8874 47.2455 13.8415 46.9774 13.8415C46.4557 13.8415 46.0228 14.0184 45.6612 14.378C45.6611 14.3781 45.6613 14.3779 45.6612 14.378C45.3079 14.7449 45.13 15.1918 45.13 15.7415C45.13 16.2916 45.3078 16.7385 45.6616 17.1055C46.023 17.465 46.456 17.6429 46.9774 17.6429C47.455 17.6429 47.85 17.5098 48.1606 17.2462C48.4497 17.0009 48.6233 16.6694 48.6847 16.2468H46.8948V15.4863H49.4583L49.4693 15.5559C49.4903 15.6896 49.5051 15.8186 49.5051 15.9427C49.5051 16.6523 49.2885 17.2316 48.8633 17.6577C48.3835 18.1657 47.7524 18.4177 46.9774 18.4177ZM69.2373 18.4177C68.4955 18.4177 67.8657 18.1572 67.3586 17.6445C66.8509 17.1374 66.5985 16.4942 66.5985 15.7415C66.5985 14.9888 66.8505 14.3461 67.3583 13.8388C67.3582 13.8389 67.3584 13.8388 67.3583 13.8388C67.8654 13.3259 68.4955 13.0654 69.2373 13.0654C69.9777 13.0654 70.6077 13.3258 71.1147 13.8462C71.6227 14.3533 71.8748 14.9949 71.8748 15.7415C71.8748 16.4942 71.6228 17.137 71.115 17.6442C70.6077 18.1572 69.9717 18.4177 69.2373 18.4177ZM50.2387 18.3067V13.1763H50.3214H53.3073V13.9523H51.043V15.3612H53.0853V16.1218H51.043V17.5321H53.3073V18.3067H50.2387ZM55.1854 18.3067V13.9523H53.7963V13.1763H57.3788V13.9523H57.2961H55.9897V18.3067H55.1854ZM59.6683 18.3067V13.1763H60.4725V13.2588V18.3067H59.6683ZM62.4972 18.3067V13.9523H61.1081V13.1763H64.6905V13.9523H64.6079H63.3014V18.3067H62.4972ZM72.5887 18.3067V13.1763H73.4956L75.8037 16.8659L75.7838 16.1655V13.1763H76.5881V18.3067H75.7922L73.3731 14.4307L73.393 15.1307V15.1318V18.3067H72.5887ZM69.2373 17.6429C69.759 17.6429 70.185 17.4652 70.5321 17.1062L70.5327 17.1055C70.8849 16.7537 71.0576 16.3005 71.0576 15.7415C71.0576 15.1838 70.8852 14.7295 70.5331 14.378L70.5321 14.377C70.185 14.018 69.7592 13.8414 69.2373 13.8414C68.7146 13.8414 68.2888 14.0178 67.935 14.3767C67.5894 14.7368 67.417 15.1839 67.417 15.7415C67.417 16.3003 67.589 16.7458 67.9348 17.1059C68.2885 17.465 68.7147 17.6429 69.2373 17.6429Z" fill="white"/>
<path id="Vector_4" d="M27.3413 23.5242L18.5449 32.8467C18.5453 32.8486 18.5459 32.8502 18.5463 32.8522C18.8161 33.8644 19.742 34.6098 20.841 34.6098C21.2803 34.6098 21.6927 34.4912 22.0464 34.283L22.0745 34.2666L31.9759 28.5615L27.3413 23.5242Z" fill="#EA4335"/>
<path id="Vector_5" d="M36.2446 21.9382L36.2362 21.9325L31.9614 19.458L27.1455 23.7371L31.9782 28.5621L36.2303 26.1122C36.9758 25.7103 37.4819 24.9256 37.4819 24.0206C37.4819 23.1222 36.9826 22.3414 36.2446 21.9382Z" fill="#FBBC04"/>
<path id="Vector_6" d="M18.5465 15.1543C18.4936 15.349 18.4658 15.553 18.4658 15.7647V32.238C18.4658 32.4494 18.4933 32.654 18.5469 32.848L27.646 23.764L18.5465 15.1543Z" fill="#4285F4"/>
<path id="Vector_7" d="M27.4065 24.0001L31.9595 19.4551L22.0693 13.7295C21.7098 13.5145 21.2902 13.3904 20.8413 13.3904C19.7424 13.3904 18.8152 14.1371 18.5453 15.1507L18.5449 15.1532L27.4065 24.0001Z" fill="#34A853"/>
</g>
<defs>
<clipPath id="clip0_415_4313">
<rect width="132" height="47.6667" fill="white" transform="translate(0 0.166748)"/>
</clipPath>
</defs>
</svg>
