<svg width="16" height="16" viewBox="0 0 16 16" fill="none" xmlns="http://www.w3.org/2000/svg">
<path d="M11.2759 8.38156C11.2878 7.45521 11.7854 6.57869 12.5746 6.09349C12.0767 5.38244 11.2427 4.93161 10.3751 4.90447C9.44964 4.80734 8.55248 5.4582 8.0809 5.4582C7.60019 5.4582 6.87411 4.91411 6.09225 4.9302C5.07313 4.96312 4.12305 5.5425 3.62722 6.43344C2.56139 8.27864 3.3564 10.9905 4.37738 12.482C4.88819 13.2124 5.48519 14.0282 6.26635 13.9993C7.03076 13.9675 7.31625 13.5118 8.23896 13.5118C9.1531 13.5118 9.42095 13.9993 10.218 13.9809C11.0382 13.9675 11.555 13.2473 12.0479 12.51C12.4149 11.9896 12.6973 11.4144 12.8847 10.8058C11.9208 10.3981 11.277 9.42811 11.2759 8.38156Z" fill="#262F36"/>
<path d="M9.77048 3.92357C10.2177 3.38671 10.438 2.69668 10.3847 2C9.70142 2.07176 9.07027 2.3983 8.61699 2.91456C8.17375 3.41897 7.94309 4.09686 7.98669 4.76691C8.67021 4.77395 9.34217 4.45626 9.77048 3.92357Z" fill="#262F36"/>
</svg>
