<svg width="6" height="12" viewBox="0 0 6 12" fill="none" xmlns="http://www.w3.org/2000/svg">
<path id="Union" fill-rule="evenodd" clip-rule="evenodd" d="M5.80606 0.217729C5.54776 -0.0725762 5.12898 -0.0725764 4.87067 0.217729L0.221528 5.44292C0.212186 5.4523 0.203025 5.46203 0.194057 5.47211C0.0948418 5.58362 0.033736 5.72174 0.010739 5.86602C-0.0268281 6.09797 0.0341674 6.34613 0.193726 6.52546C0.204501 6.53757 0.215556 6.54917 0.226866 6.56027L4.87101 11.7798C5.12931 12.0701 5.54809 12.0701 5.8064 11.7798C6.0647 11.4895 6.0647 11.0189 5.8064 10.7285L1.59789 5.9986L5.80606 1.26902C6.06437 0.978712 6.06436 0.508034 5.80606 0.217729Z" fill="#DEE0E2"/>
</svg>
