<svg width="17" height="16" viewBox="0 0 17 16" fill="none" xmlns="http://www.w3.org/2000/svg">
<g id="SVG - cafu image">
<path id="Vector" fill-rule="evenodd" clip-rule="evenodd" d="M7.73678 8.76275C6.95678 7.98275 6.36878 7.10942 5.97811 6.22341C5.89545 6.03608 5.94411 5.81674 6.08878 5.67208L6.63478 5.12674C7.08211 4.67941 7.08211 4.04674 6.69145 3.65608L5.90878 2.87341C5.38811 2.35274 4.54411 2.35274 4.02345 2.87341L3.58878 3.30808C3.09478 3.80208 2.88878 4.51474 3.02211 5.22141C3.35145 6.96342 4.36345 8.87075 5.99611 10.5034C7.62878 12.1361 9.53611 13.1481 11.2781 13.4774C11.9848 13.6108 12.6974 13.4047 13.1914 12.9107L13.6254 12.4768C14.1461 11.9561 14.1461 11.1121 13.6254 10.5914L12.8434 9.80942C12.4528 9.41875 11.8194 9.41875 11.4294 9.80942L10.8274 10.4121C10.6828 10.5568 10.4634 10.6054 10.2761 10.5228C9.39011 10.1314 8.51678 9.54275 7.73678 8.76275Z" stroke="#7E878E" stroke-linecap="round" stroke-linejoin="round"/>
</g>
</svg>
