<svg width="17" height="16" viewBox="0 0 17 16" fill="none" xmlns="http://www.w3.org/2000/svg">
<g id="SVG - cafu image">
<path id="Vector" d="M8.50055 14.0026C11.8156 14.0026 14.503 11.3151 14.503 8.00006C14.503 4.68497 11.8156 1.99756 8.50055 1.99756C5.18546 1.99756 2.49805 4.68497 2.49805 8.00006C2.49805 11.3151 5.18546 14.0026 8.50055 14.0026Z" stroke="#7E878E" stroke-linecap="round" stroke-linejoin="round"/>
<path id="Vector_2" d="M6.95605 6.45655C7.11407 5.77551 7.73438 5.30331 8.43291 5.3323C9.21465 5.289 9.88485 5.88473 9.93352 6.66619C9.93352 7.66922 8.49958 8.00008 8.49958 8.66702" stroke="#7E878E" stroke-linecap="round" stroke-linejoin="round"/>
<path id="Vector_3" d="M8.58373 10.5011C8.58373 10.5471 8.54639 10.5845 8.50033 10.5845C8.45426 10.5845 8.41699 10.5471 8.41699 10.5011C8.41699 10.4551 8.45426 10.4177 8.50033 10.4177" stroke="#7E878E" stroke-linecap="round" stroke-linejoin="round"/>
<path id="Vector_4" d="M8.5 10.4177C8.546 10.4177 8.58333 10.4551 8.58333 10.5011" stroke="#7E878E" stroke-linecap="round" stroke-linejoin="round"/>
</g>
</svg>
