<svg width="16" height="16" viewBox="0 0 16 16" fill="none" xmlns="http://www.w3.org/2000/svg">
<path d="M8.02076 7.73084L3.04688 13.0029C3.04706 13.004 3.04744 13.0049 3.04762 13.006C3.20016 13.5785 3.72373 14 4.34513 14C4.59354 14 4.82675 13.9329 5.02676 13.8152L5.04264 13.8059L10.6414 10.5796L8.02076 7.73084" fill="#EA4335"/>
<path d="M13.0513 6.83415L13.0465 6.83089L10.6294 5.43155L7.90625 7.85148L10.6389 10.5801L13.0433 9.19464C13.4648 8.96738 13.751 8.5236 13.751 8.01183C13.751 7.50375 13.4686 7.06216 13.0513 6.83415" fill="#FBBC04"/>
<path d="M3.04562 2.99756C3.01572 3.10766 3 3.223 3 3.34276V12.6587C3 12.7783 3.01553 12.894 3.0458 13.0037L8.19086 7.86652L3.04562 2.99756Z" fill="#4285F4"/>
<path d="M8.05762 8L10.6321 5.42975L5.0397 2.19176C4.83643 2.07018 4.59919 2.00001 4.34532 2.00001C3.72392 2.00001 3.19964 2.42229 3.04706 2.99545C3.04687 2.99601 3.04688 2.99639 3.04688 2.9969L8.05762 8Z" fill="#34A853"/>
</svg>
