<svg width="25" height="26" viewBox="0 0 25 26" fill="none" xmlns="http://www.w3.org/2000/svg">
<g id="SVG - cafu image">
<path id="Vector" fill-rule="evenodd" clip-rule="evenodd" d="M7.80833 3.625H17.1927C19.7781 3.625 21.875 5.72083 21.875 8.30833V17.6927C21.875 20.2781 19.7792 22.375 17.1917 22.375H7.80833C5.22187 22.375 3.125 20.2792 3.125 17.6917V8.30833C3.125 5.72187 5.22083 3.625 7.80833 3.625Z" stroke="#7E878E" stroke-width="1.5625" stroke-linecap="round" stroke-linejoin="round"/>
<path id="Vector_2" d="M17.6557 7.49268C17.462 7.49372 17.3047 7.65101 17.3047 7.84476C17.3047 8.03851 17.463 8.1958 17.6568 8.1958C17.8505 8.1958 18.0078 8.03851 18.0078 7.84476C18.0089 7.64997 17.8505 7.49268 17.6557 7.49268Z" stroke="#7E878E" stroke-width="1.5625" stroke-linecap="round" stroke-linejoin="round"/>
<path id="Vector_3" d="M15.1517 10.3484C16.6161 11.8128 16.6161 14.1872 15.1517 15.6517C13.6872 17.1162 11.3128 17.1162 9.84835 15.6517C8.38388 14.1872 8.38388 11.8128 9.84835 10.3484C11.3128 8.88388 13.6872 8.88388 15.1517 10.3484Z" stroke="#7E878E" stroke-width="1.5625" stroke-linecap="round" stroke-linejoin="round"/>
</g>
</svg>
