<svg width="132" height="48" viewBox="0 0 132 48" fill="none" xmlns="http://www.w3.org/2000/svg">
<g id="badge_ios.svg" clip-path="url(#clip0_415_4285)">
<path id="Vector" d="M117.333 0.166748H14.6667C6.56649 0.166748 0 6.73324 0 14.8334V33.1667C0 41.2669 6.56649 47.8334 14.6667 47.8334H117.333C125.434 47.8334 132 41.2669 132 33.1667V14.8334C132 6.73324 125.434 0.166748 117.333 0.166748Z" fill="black"/>
<path id="Vector_2" d="M83.7599 23.3403V25.2304H82.5752V26.4699H83.7599V30.6815C83.7599 32.1197 84.4105 32.6949 86.0472 32.6949C86.3348 32.6949 86.6087 32.6607 86.8484 32.6196V31.3938C86.643 31.4143 86.5128 31.428 86.2869 31.428C85.5541 31.428 85.2323 31.0856 85.2323 30.3049V26.4699H86.8484V25.2304H85.2323V23.3403H83.7599Z" fill="white"/>
<path id="Vector_3" d="M91.0171 32.7978C93.1943 32.7978 94.5299 31.3391 94.5299 28.9217C94.5299 26.518 93.1879 25.0525 91.0171 25.0525C88.8393 25.0525 87.4971 26.518 87.4971 28.9217C87.4971 31.3391 88.8325 32.7978 91.0171 32.7978ZM91.0171 31.4898C89.7364 31.4898 89.0174 30.5516 89.0174 28.9217C89.0174 27.3056 89.7364 26.3605 91.0171 26.3605C92.2905 26.3605 93.0165 27.3056 93.0165 28.9217C93.0165 30.5447 92.2905 31.4898 91.0171 31.4898Z" fill="white"/>
<path id="Vector_4" d="M95.6738 32.6539H97.146V28.2505C97.146 27.2028 97.9334 26.4974 99.0499 26.4974C99.3102 26.4974 99.7484 26.5453 99.8712 26.5864V25.1347C99.7136 25.0935 99.4331 25.073 99.214 25.073C98.2414 25.073 97.4127 25.6071 97.201 26.3399H97.091V25.1963H95.6738V32.6539Z" fill="white"/>
<path id="Vector_5" d="M103.527 26.3057C104.616 26.3057 105.328 27.0659 105.363 28.2369H101.596C101.678 27.0727 102.439 26.3057 103.527 26.3057ZM105.356 30.6406C105.082 31.2227 104.472 31.5445 103.582 31.5445C102.404 31.5445 101.644 30.7159 101.596 29.4079V29.3257H106.863V28.8121C106.863 26.47 105.609 25.0525 103.534 25.0525C101.431 25.0525 100.097 26.5659 100.097 28.9491C100.097 31.3322 101.404 32.7978 103.541 32.7978C105.247 32.7978 106.437 31.976 106.773 30.6406H105.356Z" fill="white"/>
<path id="Vector_6" d="M74.1045 29.8998C74.2181 31.7311 75.7441 32.9022 78.0155 32.9022C80.4429 32.9022 81.9619 31.6742 81.9619 29.7152C81.9619 28.175 81.0959 27.3233 78.9949 26.8335L77.8664 26.5567C76.5319 26.2444 75.9926 25.8256 75.9926 25.0945C75.9926 24.1718 76.8301 23.5684 78.0864 23.5684C79.2789 23.5684 80.1022 24.1576 80.2513 25.1016H81.7986C81.7063 23.3768 80.1874 22.1631 78.1077 22.1631C75.8718 22.1631 74.3813 23.3768 74.3813 25.201C74.3813 26.7057 75.2259 27.6001 77.0785 28.0331L78.3987 28.3524C79.7544 28.6719 80.3507 29.1403 80.3507 29.9211C80.3507 30.8296 79.4137 31.4897 78.1361 31.4897C76.7662 31.4897 75.8151 30.8722 75.6802 29.8998H74.1045Z" fill="white"/>
<path id="Vector_7" d="M58.8517 25.073C57.8381 25.073 56.9616 25.5798 56.5096 26.4289H56.4V25.1963H54.9824V35.133H56.4548V31.5239H56.5712C56.9616 32.3115 57.8039 32.7772 58.8653 32.7772C60.7486 32.7772 61.947 31.2911 61.947 28.9217C61.947 26.5522 60.7486 25.073 58.8517 25.073ZM58.4339 31.4555C57.2012 31.4555 56.4274 30.4831 56.4274 28.9285C56.4274 27.3671 57.2012 26.3947 58.4407 26.3947C59.6871 26.3947 60.4336 27.3466 60.4336 28.9217C60.4336 30.5036 59.6871 31.4555 58.4339 31.4555Z" fill="white"/>
<path id="Vector_8" d="M67.0997 25.073C66.0862 25.073 65.2096 25.5798 64.7576 26.4289H64.6481V25.1963H63.2305V35.133H64.7028V31.5239H64.8193C65.2096 32.3115 66.052 32.7772 67.1134 32.7772C68.9967 32.7772 70.1951 31.2911 70.1951 28.9217C70.1951 26.5522 68.9967 25.073 67.0997 25.073ZM66.682 31.4555C65.4493 31.4555 64.6755 30.4831 64.6755 28.9285C64.6755 27.3671 65.4493 26.3947 66.6889 26.3947C67.9352 26.3947 68.6816 27.3466 68.6816 28.9217C68.6816 30.5036 67.9352 31.4555 66.682 31.4555Z" fill="white"/>
<path id="Vector_9" d="M52.3411 32.6539H54.0305L50.3324 22.4116H48.6218L44.9238 32.6539H46.5563L47.5004 29.9354H51.4042L52.3411 32.6539ZM49.3955 24.2713H49.5161L50.9997 28.601H47.9049L49.3955 24.2713Z" fill="white"/>
<path id="Vector_10" d="M45.9121 14.6863V19.6272H47.6961C49.1685 19.6272 50.0211 18.7199 50.0211 17.1414C50.0211 15.5868 49.1616 14.6863 47.6961 14.6863H45.9121ZM46.6792 15.3848H47.6105C48.6342 15.3848 49.2403 16.0354 49.2403 17.1517C49.2403 18.285 48.6445 18.9287 47.6105 18.9287H46.6792V15.3848Z" fill="white"/>
<path id="Vector_11" d="M52.632 19.6991C53.7209 19.6991 54.3886 18.9698 54.3886 17.761C54.3886 16.5592 53.7174 15.8264 52.632 15.8264C51.5432 15.8264 50.8721 16.5592 50.8721 17.761C50.8721 18.9698 51.5398 19.6991 52.632 19.6991ZM52.632 19.045C51.9917 19.045 51.6322 18.576 51.6322 17.761C51.6322 16.9529 51.9917 16.4805 52.632 16.4805C53.2689 16.4805 53.6319 16.9529 53.6319 17.761C53.6319 18.5726 53.2689 19.045 52.632 19.045Z" fill="white"/>
<path id="Vector_12" d="M60.0751 15.8982H59.3389L58.6746 18.7436H58.6164L57.8494 15.8982H57.144L56.3771 18.7436H56.3223L55.6546 15.8982H54.9082L55.9354 19.627H56.6921L57.4591 16.881H57.5173L58.2877 19.627H59.0513L60.0751 15.8982Z" fill="white"/>
<path id="Vector_13" d="M60.9229 19.6271H61.659V17.446C61.659 16.8639 62.0048 16.501 62.5493 16.501C63.0937 16.501 63.3539 16.7988 63.3539 17.398V19.6271H64.0901V17.2131C64.0901 16.3264 63.6312 15.8264 62.7992 15.8264C62.2376 15.8264 61.8678 16.0764 61.6864 16.4907H61.6316V15.8983H60.9229V19.6271Z" fill="white"/>
<path id="Vector_14" d="M65.249 19.6271H65.9852V14.4431H65.249V19.6271Z" fill="white"/>
<path id="Vector_15" d="M68.7541 19.6991C69.843 19.6991 70.5107 18.9698 70.5107 17.761C70.5107 16.5592 69.8396 15.8264 68.7541 15.8264C67.6652 15.8264 66.9941 16.5592 66.9941 17.761C66.9941 18.9698 67.6618 19.6991 68.7541 19.6991ZM68.7541 19.045C68.1138 19.045 67.7542 18.576 67.7542 17.761C67.7542 16.9529 68.1138 16.4805 68.7541 16.4805C69.3909 16.4805 69.7539 16.9529 69.7539 17.761C69.7539 18.5726 69.3909 19.045 68.7541 19.045Z" fill="white"/>
<path id="Vector_16" d="M72.7037 19.069C72.3031 19.069 72.012 18.8739 72.012 18.5383C72.012 18.2096 72.2449 18.0349 72.7585 18.0007L73.6693 17.9425V18.2541C73.6693 18.7163 73.2584 19.069 72.7037 19.069ZM72.5154 19.6888C73.0051 19.6888 73.4125 19.4765 73.6351 19.1032H73.6933V19.6271H74.4021V17.0796C74.4021 16.2921 73.8748 15.8264 72.94 15.8264C72.0943 15.8264 71.4916 16.2373 71.4163 16.8777H72.1284C72.2107 16.6139 72.4948 16.4633 72.9058 16.4633C73.409 16.4633 73.6693 16.6859 73.6693 17.0796V17.4015L72.6592 17.4597C71.7724 17.5145 71.2725 17.9014 71.2725 18.5726C71.2725 19.2539 71.7963 19.6888 72.5154 19.6888Z" fill="white"/>
<path id="Vector_17" d="M76.9002 19.6888C77.4138 19.6888 77.8487 19.4457 78.0713 19.0383H78.1295V19.6271H78.8349V14.4431H78.0987V16.4908H78.0439C77.8418 16.0798 77.4105 15.8367 76.9002 15.8367C75.9586 15.8367 75.3525 16.5832 75.3525 17.7611C75.3525 18.9424 75.9518 19.6888 76.9002 19.6888ZM77.1091 16.4975C77.7254 16.4975 78.1123 16.9872 78.1123 17.7645C78.1123 18.5452 77.7289 19.028 77.1091 19.028C76.4859 19.028 76.1127 18.552 76.1127 17.7611C76.1127 16.977 76.4894 16.4975 77.1091 16.4975Z" fill="white"/>
<path id="Vector_18" d="M83.6086 19.6991C84.6975 19.6991 85.3652 18.9698 85.3652 17.761C85.3652 16.5592 84.6941 15.8264 83.6086 15.8264C82.5198 15.8264 81.8486 16.5592 81.8486 17.761C81.8486 18.9698 82.5163 19.6991 83.6086 19.6991ZM83.6086 19.045C82.9683 19.045 82.6088 18.576 82.6088 17.761C82.6088 16.9529 82.9683 16.4805 83.6086 16.4805C84.2455 16.4805 84.6084 16.9529 84.6084 17.761C84.6084 18.5726 84.2455 19.045 83.6086 19.045Z" fill="white"/>
<path id="Vector_19" d="M86.3398 19.6271H87.076V17.446C87.076 16.8639 87.4219 16.501 87.9663 16.501C88.5107 16.501 88.7709 16.7988 88.7709 17.398V19.6271H89.5071V17.2131C89.5071 16.3264 89.0483 15.8264 88.2163 15.8264C87.6547 15.8264 87.2849 16.0764 87.1034 16.4907H87.0487V15.8983H86.3398V19.6271Z" fill="white"/>
<path id="Vector_20" d="M92.8978 14.9705V15.9155H92.3057V16.5352H92.8978V18.6411C92.8978 19.3601 93.2233 19.6478 94.0418 19.6478C94.1858 19.6478 94.3223 19.6306 94.4424 19.6101V18.9971C94.3397 19.0074 94.2747 19.0142 94.1619 19.0142C93.7952 19.0142 93.6339 18.843 93.6339 18.4527V16.5352H94.4424V15.9155H93.6339V14.9705H92.8978Z" fill="white"/>
<path id="Vector_21" d="M95.4307 19.6271H96.1667V17.4495C96.1667 16.8845 96.5022 16.5044 97.1045 16.5044C97.6252 16.5044 97.9029 16.8057 97.9029 17.4016V19.6271H98.639V17.2201C98.639 16.3332 98.1495 15.8298 97.3547 15.8298C96.7937 15.8298 96.3996 16.0798 96.2181 16.4975H96.1594V14.4431H95.4307V19.6271Z" fill="white"/>
<path id="Vector_22" d="M101.294 16.453C101.839 16.453 102.194 16.8331 102.212 17.4186H100.329C100.369 16.8365 100.75 16.453 101.294 16.453ZM102.208 18.6204C102.072 18.9115 101.766 19.0724 101.322 19.0724C100.732 19.0724 100.353 18.6581 100.329 18.0041V17.9631H102.962V17.7062C102.962 16.5352 102.336 15.8264 101.298 15.8264C100.246 15.8264 99.5791 16.5831 99.5791 17.7747C99.5791 18.9663 100.233 19.6991 101.301 19.6991C102.154 19.6991 102.75 19.2881 102.918 18.6204H102.208Z" fill="white"/>
<path id="Vector_23" d="M36.9363 24.2477C36.9542 22.8609 37.6989 21.5486 38.8805 20.8222C38.1351 19.7577 36.8867 19.0827 35.5878 19.0421C34.2024 18.8967 32.8593 19.8712 32.1534 19.8712C31.4338 19.8712 30.3468 19.0566 29.1763 19.0806C27.6507 19.1299 26.2284 19.9974 25.4862 21.3311C23.8906 24.0936 25.0808 28.1534 26.6092 30.3864C27.3739 31.4798 28.2676 32.7012 29.437 32.6579C30.5813 32.6104 31.0087 31.9282 32.39 31.9282C33.7585 31.9282 34.1594 32.6579 35.3526 32.6303C36.5805 32.6104 37.3541 31.5321 38.092 30.4283C38.6415 29.6493 39.0642 28.7881 39.3447 27.877C37.9017 27.2666 36.938 25.8145 36.9363 24.2477Z" fill="white"/>
<path id="Vector_24" d="M34.6831 17.5736C35.3525 16.7698 35.6824 15.7368 35.6025 14.6938C34.5797 14.8013 33.6348 15.2901 32.9563 16.063C32.2927 16.8181 31.9474 17.833 32.0127 18.8362C33.0359 18.8467 34.0419 18.3711 34.6831 17.5736Z" fill="white"/>
</g>
<defs>
<clipPath id="clip0_415_4285">
<rect width="132" height="47.6667" fill="white" transform="translate(0 0.166748)"/>
</clipPath>
</defs>
</svg>
