<svg width="25" height="26" viewBox="0 0 25 26" fill="none" xmlns="http://www.w3.org/2000/svg">
<g id="SVG - cafu image">
<path id="Vector" fill-rule="evenodd" clip-rule="evenodd" d="M7.8125 3.625H17.1917C19.7781 3.625 21.875 5.72187 21.875 8.30833V17.6927C21.875 20.2781 19.7781 22.375 17.1917 22.375H7.80833C5.22187 22.375 3.125 20.2781 3.125 17.6917V8.3125C3.125 5.72396 5.22396 3.625 7.8125 3.625Z" stroke="#7E878E" stroke-width="1.5625" stroke-linecap="round" stroke-linejoin="round"/>
<path id="Vector_2" d="M8.45801 12.0625V17.6875" stroke="#7E878E" stroke-width="1.5625" stroke-linecap="round" stroke-linejoin="round"/>
<path id="Vector_3" d="M12.207 17.6875V14.4062C12.207 13.1115 13.256 12.0625 14.5508 12.0625C15.8456 12.0625 16.8945 13.1115 16.8945 14.4062V17.6875" stroke="#7E878E" stroke-width="1.5625" stroke-linecap="round" stroke-linejoin="round"/>
<path id="Vector_4" d="M8.456 8.66455C8.32683 8.66455 8.22162 8.76976 8.22266 8.89893C8.22266 9.02809 8.32787 9.1333 8.45704 9.1333C8.58621 9.1333 8.69141 9.02809 8.69141 8.89893C8.69141 8.76872 8.58621 8.66455 8.456 8.66455Z" stroke="#7E878E" stroke-width="1.5625" stroke-linecap="round" stroke-linejoin="round"/>
</g>
</svg>
