<svg width="17" height="16" viewBox="0 0 17 16" fill="none" xmlns="http://www.w3.org/2000/svg">
<g id="SVG - cafu image">
<path id="Vector" fill-rule="evenodd" clip-rule="evenodd" d="M12.6364 3.84121C11.5391 2.74321 10.0798 2.13787 8.52509 2.13721C5.32042 2.13721 2.71309 4.74321 2.71242 7.94655C2.71109 8.96588 2.97842 9.96788 3.48775 10.8512L2.66309 13.8619L5.74442 13.0539C6.59709 13.5179 7.55175 13.7612 8.52242 13.7612H8.52509C11.7284 13.7612 14.3358 11.1545 14.3371 7.95121C14.3378 6.39921 13.7338 4.93987 12.6364 3.84121Z" stroke="#7E878E" stroke-linecap="round" stroke-linejoin="round"/>
<path id="Vector_2" d="M9.23006 9.04036L9.50073 8.77169C9.7494 8.52502 10.1427 8.49369 10.4294 8.69502C10.6913 8.87889 10.9295 9.04489 11.1517 9.19982L11.1907 9.22702C11.5614 9.48436 11.6061 10.0124 11.2867 10.331L11.0474 10.5704C10.0601 11.553 8.40073 10.7184 7.09071 9.40769L7.09204 9.40969C5.78204 8.09902 4.94738 6.44034 5.93004 5.453L6.16938 5.21367C6.48804 4.895 7.01604 4.93967 7.2734 5.30967C7.4354 5.543 7.61006 5.79367 7.8054 6.071C8.00673 6.35767 7.97606 6.75102 7.72873 6.99969L7.46006 7.27036C7.67273 7.60569 7.9454 7.93769 8.2534 8.24569L8.25473 8.24702C8.56273 8.55502 8.89473 8.82769 9.23006 9.04036Z" fill="#7E878E" stroke="#7E878E" stroke-width="0.666667"/>
</g>
</svg>
