<svg width="25" height="26" viewBox="0 0 25 26" fill="none" xmlns="http://www.w3.org/2000/svg">
<g id="SVG - cafu image">
<path id="Vector" fill-rule="evenodd" clip-rule="evenodd" d="M22.482 7.13851C22.2434 6.09268 21.5372 5.26768 20.6393 4.98434C19.0153 4.47705 12.4997 4.47705 12.4997 4.47705C12.4997 4.47705 5.98717 4.47705 4.36009 4.98434C3.4653 5.26351 2.75905 6.08851 2.51738 7.13851C2.08301 9.03643 2.08301 13 2.08301 13C2.08301 13 2.08301 16.9635 2.51738 18.8614C2.75592 19.9073 3.46217 20.7323 4.36009 21.0156C5.98717 21.5229 12.4997 21.5229 12.4997 21.5229C12.4997 21.5229 19.0153 21.5229 20.6393 21.0156C21.534 20.7364 22.2403 19.9114 22.482 18.8614C22.9163 16.9635 22.9163 13 22.9163 13C22.9163 13 22.9163 9.03643 22.482 7.13851Z" stroke="#7E878E" stroke-width="1.5625" stroke-linecap="round" stroke-linejoin="round"/>
<path id="Vector_2" fill-rule="evenodd" clip-rule="evenodd" d="M10.4189 16.125L15.8314 13L10.4189 9.875V16.125Z" stroke="#7E878E" stroke-width="1.5625" stroke-linecap="round" stroke-linejoin="round"/>
</g>
</svg>
